<?xml version="1.0" encoding="utf-8"?>
<!-- Generator: Adobe Illustrator 21.1.0, SVG Export Plug-In . SVG Version: 6.00 Build 0)  -->
<svg version="1.1" id="svg4408" xmlns="http://www.w3.org/2000/svg" xmlns:xlink="http://www.w3.org/1999/xlink" x="0px" y="0px"
	 viewBox="0 0 150 150" style="enable-background:new 0 0 150 150;" xml:space="preserve">
<style type="text/css">
	.st0{opacity:0.892;enable-background:new    ;}
	.st1{fill:url(#SVGID_1_);}
	.st2{fill:#FF9800;}
	.st3{fill:#FFFFFF;}
</style>
<g id="layer1">
	<g id="path6881-3-5-5-1-8-4-4-7-8" transform="translate(-146.438 -276.028)" class="st0">
		
			<radialGradient id="SVGID_1_" cx="1743.6882" cy="-1470.8905" r="49.9007" gradientTransform="matrix(0.6793 7.600000e-03 0.509 -0.5612 -190.4822 -443.242)" gradientUnits="userSpaceOnUse">
			<stop  offset="0" style="stop-color:#000000"/>
			<stop  offset="1" style="stop-color:#000000;stop-opacity:0.188"/>
		</radialGradient>
		<path class="st1" d="M285.6,388.5c10.3-12.4,4.4-22.4-14.4-22.4c-18.9,0-42.4,10-53.9,22.4c-16.8,18,0.4,23.5-0.2,35
			c-0.1,1.8,3.9,1.8,7,0C243.9,412,270.6,406.5,285.6,388.5"/>
	</g>
	<path id="path6881-3-5-5-1-8-4-4" class="st2" d="M124.7,69.1c-0.9-27.5-22.3-49.8-49.8-49.8s-49,22.3-49.8,49.8
		c-1.3,40.1,30.7,52.2,44.7,78c2.2,4,8,4,10.1,0C94,121.3,126,109.2,124.7,69.1"/>
</g>
<g id="g4928">
	<circle id="path4978" class="st2" cx="74.9" cy="69.1" r="49.9"/>
	<g id="g4915">
		<path id="path6883-2-3-5-2-4-9-4-9" class="st3" d="M74.8,106.4c-20.6,0-37.4-16.7-37.4-37.4c0-20.6,16.7-37.4,37.4-37.4
			c20.6,0,37.4,16.7,37.4,37.4S95.5,106.4,74.8,106.4"/>
	</g>
</g>
<path class="st2" d="M97.4,88.8c1.1-0.2,1.9-1.5,1.9-2.9v-1.8c0-1.6-1-2.9-2.4-2.9c-1.3,0-2.4,1.3-2.4,2.9v1.8
	c0,1.4,0.8,2.6,1.9,2.9v3.7h-3.3V72.6l-5-1.9v21.7h-0.6V62.1l-5-1.9v32.3h-0.6V48.1h-1.5v-1.7h-1.8v-1.6h-2.3v-0.5
	c0-0.3-0.2-0.6-0.5-0.6h-0.2l-0.3-7.1c0-0.1-0.1-0.2-0.2-0.2s-0.2,0.1-0.2,0.2l-0.3,7.1h-0.2c-0.2,0-0.5,0.2-0.5,0.6v0.5h-2.3v1.6
	h-1.8v1.7h-1.5v44.3h-0.6V53.2l-10.6,1.9v37.2h-3.4v-3.7c1.1-0.2,1.9-1.5,1.9-2.9v-1.8c0-1.6-1-2.9-2.4-2.9s-2.4,1.3-2.4,2.9v1.8
	c0,1.4,0.8,2.6,1.9,2.9v3.7h-1.9v1.5h48.8v-1.5h-1.9v-3.7h-0.3L97.4,88.8z M89.7,74.7h1.8v2.6h-1.8V74.7z M89.7,79.1h1.8v2.6h-1.8
	V79.1z M89.7,83.5h1.8V86h-1.8C89.7,86,89.7,83.5,89.7,83.5z M89.7,87.8h1.8v2.6h-1.8V87.8z M84.1,64.2h1.8v5h-1.8V64.2z M84.1,71.2
	h1.8v5h-1.8V71.2z M84.1,78.3h1.8v5h-1.8V78.3z M84.1,85.3h1.8v5h-1.8V85.3z M63.2,57.4H65V60h-1.8V57.4z M63.2,61.7H65v2.6h-1.8
	C63.2,64.3,63.2,61.7,63.2,61.7z M63.2,66.1H65v2.6h-1.8V66.1z M63.2,70.4H65V73h-1.8V70.4z M63.2,74.7H65v2.6h-1.8V74.7z
	 M63.2,79.1H65v2.6h-1.8V79.1z M63.2,83.5H65V86h-1.8C63.2,86,63.2,83.5,63.2,83.5z M63.2,87.8H65v2.6h-1.8V87.8z M59.2,57.4H61V60
	h-1.8C59.2,60,59.2,57.4,59.2,57.4z M59.2,61.7H61v2.6h-1.8C59.2,64.3,59.2,61.7,59.2,61.7z M59.2,66.1H61v2.6h-1.8V66.1z
	 M59.2,70.4H61V73h-1.8C59.2,73,59.2,70.4,59.2,70.4z M59.2,74.7H61v2.6h-1.8V74.7z M59.2,79.1H61v2.6h-1.8V79.1z M59.2,83.5H61V86
	h-1.8V83.5L59.2,83.5z M59.2,87.8H61v2.6h-1.8V87.8z M77.9,50.3h1.8v2.6h-1.8V50.3z M77.9,54.6h1.8v2.6h-1.8V54.6z M77.9,59h1.8v2.6
	h-1.8V59L77.9,59z M77.9,63.3h1.8v2.6h-1.8V63.3z M77.9,67.7h1.8v2.6h-1.8V67.7z M77.9,72h1.8v2.6h-1.8V72L77.9,72z M77.9,76.3h1.8
	v2.6h-1.8V76.3z M77.9,80.7h1.8v2.6h-1.8V80.7z M78.7,85.2v7.3h-3.4v-7.3H78.7z M74,50.3h1.8v2.6H74V50.3z M74,54.6h1.8v2.6H74V54.6
	z M74,59h1.8v2.6H74V59z M74,63.3h1.8v2.6H74C74,65.9,74,63.3,74,63.3z M74,67.7h1.8v2.6H74V67.7z M74,72h1.8v2.6H74V72z M74,76.3
	h1.8v2.6H74V76.3z M74,80.7h1.8v2.6H74V80.7z M70,50.3h1.8v2.6H70V50.3z M70,54.6h1.8v2.6H70V54.6z M70,59h1.8v2.6H70
	C70,61.6,70,59,70,59z M70,63.3h1.8v2.6H70V63.3z M70,67.7h1.8v2.6H70V67.7z M70,72h1.8v2.6H70C70,74.6,70,72,70,72z M70,76.3h1.8
	v2.6H70V76.3z M70,80.7h1.8v2.6H70V80.7z M71.2,85.2h3.4v7.3h-3.4V85.2z"/>
</svg>
